<svg xmlns="http://www.w3.org/2000/svg" width="64" height="64" viewBox="0 0 64 64" fill="none">
  <rect width="64" height="64" rx="14" fill="#2563eb"/>
  <g transform="translate(12, 12)" stroke="#ffffff" stroke-width="2.5" stroke-linecap="round" stroke-linejoin="round" fill="none">
    <path d="M20 39V21"/>
    <path d="M20 25c-4-1-7-4-7-8a7 7 0 0 1 13-3.5"/>
    <path d="M20 25c4-1 7-4 7-8a7 7 0 0 0-13-3.5"/>
    <path d="M7.5 22A6.5 6.5 0 0 0 13 29h7"/>
    <path d="M32.5 22A6.5 6.5 0 0 1 27 29h-7"/>
    <path d="M10 28c-2.5 1.5-4 4-4 7a6 6 0 0 0 6 6h8"/>
    <path d="M30 28c2.5 1.5 4 4 4 7a6 6 0 0 1-6 6h-8"/>
  </g>
</svg>
